<?xml version="1.0" encoding="utf-8"?>
<!-- Generator: Adobe Illustrator 25.0.1, SVG Export Plug-In . SVG Version: 6.00 Build 0)  -->
<svg version="1.1" id="Layer_1" xmlns="http://www.w3.org/2000/svg" xmlns:xlink="http://www.w3.org/1999/xlink" x="0px" y="0px"
	 viewBox="0 0 512 512" style="enable-background:new 0 0 512 512;" xml:space="preserve">
<style type="text/css">
	.st0{fill:#FFFFFF;}
</style>
<g>
	<path class="st0" d="M269.5,451.4c-8.1,0-16.1-1.4-23.8-4.2c-19.3-7-34.3-22-41.4-41.3c0-0.1-0.1-0.2-0.1-0.3
		c-12.3,1.1-29.1,0.6-42.8-6.6c-20.5-10.7-34.1-25.9-47-52.3c-8.9-18.2-11.8-18.8-21.5-20.6c-7.1-1.4-12.3-7.1-12.9-14.2
		c-0.7-7.1,3.3-13.7,9.9-16.4c9.7-3.9,34.6-11.6,56.1,2.1c11.1,7.1,17.1,16.9,21.9,24.7c6.4,10.6,8.3,12.6,14.5,12.6
		c11.3,0,17.8-6.1,20.8-9.8c-54.4-20.3-90.2-64.7-90.2-113.3c0-22.8,7.6-44.7,21.9-64c-13.8-28.6-10.4-61.2,9-81l2.6-2.7l3.6-1.1
		c21-6.6,50.4-1.8,73.1,29.3c29.9-7.4,62.5-7.4,92.4-0.1c10.2-13.5,32.7-34.8,70.7-29.8l5.1,0.7l3.6,3.7
		c19.3,19.8,22.8,52.1,9.2,80.7c14.6,19.4,22.2,41.4,22.2,64.3c0,48.8-36.1,93.3-90.9,113.5c2.6,7.6,3.7,19.4,3.7,39.5
		c0,21.6-1.3,33.6-4.3,41.1c-7.1,19.2-22.2,34.2-41.4,41.2C285.6,450,277.6,451.4,269.5,451.4z M232,395.2l0.1,0.3
		c4,11.1,12.7,19.8,23.8,23.8c8.8,3.2,18.5,3.2,27.2,0c11.1-4,19.8-12.7,23.8-23.8l0.3-0.7c0.5-1.2,2.1-7,2.1-29.9
		c0-22.9-1.6-28.7-2.1-29.9l-0.3-0.7c-0.6-1.7-1.4-3.4-2.3-5.1c-2.9-5.3-3.3-11.6-1-17.2c2.3-5.5,6.9-9.7,12.6-11.4
		c48-14.4,80.3-50,80.3-88.6c0-18.8-7.4-37.1-21.5-52.8l-7.5-8.4l6.5-10.1c0.3-0.5,0.7-1,1-1.5c9.4-16.3,9.9-35.3,1.8-47.4
		c-25.3-0.7-37.7,17.9-41.1,24c-3.7,6.8-11.8,10-19.1,7.8c-30.2-9.1-64.3-9.1-94.4,0.1c-7.2,2.2-15-0.8-18.9-7.3
		c-3.1-5.1-18.9-29.4-40.7-25.7c-8.9,12-8.6,31.7,1.1,48.4c0.4,0.7,0.8,1.3,1.2,1.9l6.4,10l-7.5,8.4c-13.9,15.7-21.2,33.8-21.2,52.6
		c0,38.6,32.3,74.2,80.3,88.6c5.7,1.7,10.3,5.9,12.6,11.4c2.3,5.6,1.9,11.9-1,17.2c-0.9,1.6-1.7,3.3-2.3,5c-0.3,0.8-0.6,1.5-1,2.2
		c-7,13.1-23.9,28.4-48.8,28.4c-18.2,0-28-9.3-34.7-18.7c7.8,13,16,20.7,27.5,26.8c7.2,3.8,19.8,4.7,33.6,2.4
		c10.5-1.7,20.5,5.4,22.4,15.9C231.6,393.6,231.9,394.8,232,395.2z M231.8,394.8L231.8,394.8C231.8,394.8,231.8,394.8,231.8,394.8z
		 M101,323.1C101,323.1,101,323.1,101,323.1C101,323.1,101,323.1,101,323.1z M213.5,95.1C213.5,95.1,213.5,95.1,213.5,95.1
		C213.5,95.1,213.5,95.1,213.5,95.1z"/>
</g>
</svg>
