<?xml version="1.0" encoding="utf-8"?>
<!-- Generator: Adobe Illustrator 25.0.1, SVG Export Plug-In . SVG Version: 6.00 Build 0)  -->
<svg version="1.1" id="Layer_1" xmlns="http://www.w3.org/2000/svg" xmlns:xlink="http://www.w3.org/1999/xlink" x="0px" y="0px"
	 viewBox="0 0 512 512" style="enable-background:new 0 0 512 512;" xml:space="preserve">
<style type="text/css">
	.st0{fill:#FFFFFF;}
</style>
<path class="st0" d="M322.3,344.9c-5.1-6.4-14.5-7.4-20.9-2.3c-13,10.4-28.7,16-45.4,16.1c-16.7-0.1-32.4-5.7-45.4-16.1
	c-6.4-5.1-15.8-4.1-20.9,2.3c-5.1,6.4-4.1,15.8,2.3,20.9c18,14.4,40.5,22.4,63.5,22.6l1.1,0v0c23-0.2,45.5-8.2,63.5-22.6
	C326.4,360.7,327.4,351.3,322.3,344.9z M322.3,344.9c-5.1-6.4-14.5-7.4-20.9-2.3c-13,10.4-28.7,16-45.4,16.1
	c-16.7-0.1-32.4-5.7-45.4-16.1c-6.4-5.1-15.8-4.1-20.9,2.3c-5.1,6.4-4.1,15.8,2.3,20.9c18,14.4,40.5,22.4,63.5,22.6l1.1,0v0
	c23-0.2,45.5-8.2,63.5-22.6C326.4,360.7,327.4,351.3,322.3,344.9z M322.3,344.9c-5.1-6.4-14.5-7.4-20.9-2.3
	c-13,10.4-28.7,16-45.4,16.1c-16.7-0.1-32.4-5.7-45.4-16.1c-6.4-5.1-15.8-4.1-20.9,2.3c-5.1,6.4-4.1,15.8,2.3,20.9
	c18,14.4,40.5,22.4,63.5,22.6l1.1,0v0c23-0.2,45.5-8.2,63.5-22.6C326.4,360.7,327.4,351.3,322.3,344.9z M223.5,280.3
	c0,17.2-14,31.1-31.1,31.1s-31.1-14-31.1-31.1c0-17.2,14-31.1,31.1-31.1S223.5,263.1,223.5,280.3z M478.4,245.9
	c-3.4-26.1-24.9-46.8-51.2-49.4c-12.4-1.2-24.8,1.7-35.3,8c-32.4-21.9-73.2-35.1-117.5-38l15.2-66.6c1.5-6.7,8.5-11.2,15.2-9.8
	l48.5,10c2.5,16.1,16.4,28.5,33.2,28.5c18.6,0,33.7-15.1,33.7-33.7c0-18.6-15.1-33.7-33.7-33.7c-9.5,0-18.1,4-24.3,10.4l-51.4-10.6
	c-22.6-4.6-45.1,9.8-50.2,32.3l-16.6,72.9c-46.8,1.9-90.1,15.3-124,38.3c-10.5-6.3-22.9-9.2-35.2-8c-26.2,2.5-47.8,23.3-51.2,49.4
	c-2.9,21.9,6.7,42.9,24.3,55c-0.2,2.7-0.3,5.4-0.3,8c0,78.8,89,142.9,198.4,142.9c109.4,0,198.4-64.1,198.4-142.9
	c0-2.6-0.1-5.3-0.3-8C471.7,288.8,481.3,267.8,478.4,245.9z M432.9,278.8c-6.7,3-10.6,10.2-9.3,17.5c0.7,4.4,1.1,8.5,1.1,12.6
	c0,62.4-75.7,113.2-168.7,113.2c-93,0-168.7-50.8-168.7-113.2c0-4.1,0.4-8.2,1.1-12.6c1.2-7.3-2.6-14.5-9.3-17.5
	c-11.2-5.1-17.6-16.7-16-29c1.6-12.3,12.2-22.5,24.6-23.7c0.9-0.1,1.9-0.1,2.8-0.1c6.9,0,13.4,2.5,18.6,7.2
	c5.8,5.3,14.5,5.7,20.7,0.9c32.2-24.4,78.2-38.5,126.2-38.5c48.1,0,94.1,14,126.2,38.5c6.2,4.7,14.9,4.3,20.7-0.9
	c5.8-5.3,13.4-7.8,21.4-7.1c12.4,1.2,23,11.4,24.6,23.7C450.5,262.1,444.1,273.8,432.9,278.8z M350.8,280.3
	c0,17.2-14,31.1-31.1,31.1c-17.2,0-31.1-14-31.1-31.1c0-17.2,14-31.1,31.1-31.1C336.8,249.1,350.8,263.1,350.8,280.3z"/>
</svg>
