<?xml version="1.0" encoding="utf-8"?>
<!-- Generator: Adobe Illustrator 25.0.1, SVG Export Plug-In . SVG Version: 6.00 Build 0)  -->
<svg version="1.1" id="Layer_1" xmlns="http://www.w3.org/2000/svg" xmlns:xlink="http://www.w3.org/1999/xlink" x="0px" y="0px"
	 viewBox="0 0 512 512" style="enable-background:new 0 0 512 512;" xml:space="preserve">
<style type="text/css">
	.st0{fill:#FFFFFF;}
</style>
<g>
	<path class="st0" d="M178.6,446.9c-51.5,0-101.3-14.9-144.1-43c-5.8-3.8-8.2-11.1-5.8-17.5c2.4-6.5,8.9-10.5,15.8-9.6
		c5.9,0.7,12.1,1.1,18.4,1.1c23.9,0,46.8-5.4,67.6-15.7c-27.2-11.6-48.6-34.8-57.6-64.2c-1.5-4.9-0.3-10.3,3.1-14.2
		c0.2-0.2,0.3-0.4,0.5-0.5c-1.1-0.9-2.2-1.9-3.2-2.9c-20.8-19.3-32.8-46.7-32.8-75.1c0-0.9,0-1.8,0.1-2.8c0.3-5.1,3.3-9.7,7.8-12.2
		c1.1-0.6,2.2-1,3.3-1.3c-1.6-3.2-3.1-6.5-4.4-9.8c-4.5-11.7-6.8-24.1-6.8-36.8c0-4.1,0.2-7.9,0.7-11.4c1.6-15,6.5-29.4,14.7-42.5
		c2.5-4.1,6.9-6.7,11.7-7c4.8-0.3,9.4,1.7,12.5,5.5c6.4,7.9,13.4,15.5,21,22.7c2.7,2.5,5.6,5.2,8.8,7.9
		c13.5,11.6,28.2,21.6,43.7,29.7c8.1,4.3,16.7,8.2,25.4,11.6c3.2,1.2,6.5,2.4,9.8,3.5c10.7,3.6,21.8,6.4,33,8.4
		c2.3,0.4,4.4,0.8,6.5,1.1l2.4,0.3c1,0.1,2,0.3,3,0.4c-0.1-1.3-0.1-2.7-0.1-4c0-28.8,12.2-56.6,33.4-76.1c4.4-4.1,9.3-7.9,14.5-11.2
		c4.9-3.1,10.2-5.9,15.7-8.3c12.8-5.3,26.3-8,40.1-8c26,0,51.2,9.9,70.2,27.4c1.1-0.2,2.2-0.5,3.3-0.8c14.1-3.4,27.5-9.3,39.8-17.5
		c5.3-3.5,12.2-3.3,17.2,0.6c5,3.8,7.1,10.4,5.1,16.4c-2.1,6.4-4.8,12.6-8.1,18.5c6-1.9,12.6,0.1,16.4,5.2c3.9,5.2,4,12.4,0.2,17.7
		c-11.4,15.9-24.9,30.3-40,42.9c0.1,2.8,0.1,5.6,0.1,8.5C441.6,328.9,323.6,446.9,178.6,446.9z M100.2,403.7
		c25,8.9,51.4,13.5,78.4,13.5c128.7,0,233.3-104.7,233.3-233.3c0-4.8-0.1-9.6-0.4-14.4c-0.3-4.9,1.8-9.6,5.7-12.6
		c2.9-2.3,5.7-4.6,8.5-7c-0.5,0.1-1,0.1-1.6,0.2c-0.4,0.1-0.9,0.1-1.3,0.2c-0.9,0.2-1.8,0.3-2.7,0.3c-0.6,0.1-1.1,0.1-1.7,0.1
		c-6.5,0.4-12.6-3.6-14.8-9.8c-2.2-6.2-0.1-13.1,5.2-17c0.3-0.2,0.5-0.4,0.8-0.6c0.2-0.1,0.3-0.3,0.5-0.4c0.4-0.3,0.7-0.6,1.1-0.8
		c-2.1,0.4-4.2,0.8-6.3,1.1c-4.9,0.8-9.9-1-13.2-4.6c-14-15.1-33.8-23.8-54.4-23.8c-9.9,0-19.5,1.9-28.6,5.7
		c-3.9,1.7-7.7,3.7-11.2,5.9c-3.7,2.4-7.2,5-10.3,8c-15.2,14-23.9,33.8-23.9,54.4c0,5.8,0.7,11.5,2,17c1.1,4.6,0,9.4-3,13
		c-3,3.6-7.5,5.6-12.2,5.3c-8.3-0.4-16-1.2-23.5-2.2l-2.5-0.3c-2.7-0.4-5.2-0.8-7.6-1.3c-12.5-2.2-25-5.4-37.1-9.4
		c-3.7-1.2-7.3-2.5-11-3.9c-10-3.8-19.6-8.2-28.7-13.1c-17.5-9.2-34.1-20.4-49.3-33.5c-3.5-3-6.8-6-9.9-8.9
		c-2.7-2.5-5.3-5.1-7.8-7.7c-0.9,3.6-1.6,7.2-2,10.9c-0.3,2.6-0.5,5.1-0.5,8c0,9,1.6,17.7,4.8,26.1c5.3,13.9,14.6,25.6,26.9,34
		c5.5,3.8,7.9,10.7,5.7,17c-2.1,6.3-8.2,10.4-14.9,10.1c-6.6-0.4-13.1-1.4-19.4-3c3.7,12.1,10.5,23,20.1,31.9
		c10.1,9.4,22.5,15.7,36,18.2c6.8,1.2,11.8,7,12.1,13.8c0.4,6.9-4,13.1-10.6,15c-6.5,1.9-13.2,3.2-19.9,3.8
		c12.9,18.6,34.1,30.6,57.6,31.3c6.2,0.2,11.6,4.2,13.6,10.1c2,5.9,0.1,12.4-4.7,16.3C154.9,385.3,128.3,397.8,100.2,403.7z"/>
</g>
</svg>
