<?xml version="1.0" encoding="utf-8"?>
<!-- Generator: Adobe Illustrator 25.0.1, SVG Export Plug-In . SVG Version: 6.00 Build 0)  -->
<svg version="1.1" id="Layer_1" xmlns="http://www.w3.org/2000/svg" xmlns:xlink="http://www.w3.org/1999/xlink" x="0px" y="0px"
	 viewBox="0 0 512 512" style="enable-background:new 0 0 512 512;" xml:space="preserve">
<style type="text/css">
	.st0{fill:#FFFFFF;}
</style>
<path class="st0" d="M431.2,141.3c-10.4-28.2-32.4-50.2-60.6-60.6c-19.5-8-45.9-8-89.4-8h-50.4c-43.5,0-69.9,0-89.4,8
	c-28.2,10.4-50.2,32.4-60.6,60.6c-8,19.5-8,45.9-8,89.4v50.4c0,43.5,0,69.9,8,89.4c10.4,28.2,32.4,50.2,60.6,60.6
	c19.5,8,45.9,8,89.4,8h50.4c43.5,0,69.9,0,89.4-8c28.2-10.4,50.2-32.4,60.6-60.6c8-19.5,8-45.9,8-89.4v-50.4
	C439.3,187.2,439.3,160.9,431.2,141.3z M409.6,281.2c0,38.7,0,64.3-5.9,78.3l-0.3,0.6c-7.3,20.2-23.1,35.9-43.3,43.3l-0.6,0.3
	c-14.1,5.9-39.6,5.9-78.3,5.9h-50.4c-38.7,0-64.3,0-78.3-5.9l-0.6-0.3c-20.2-7.3-35.9-23.1-43.3-43.3l-0.3-0.6
	c-5.9-14.1-5.9-39.6-5.9-78.3v-50.4c0-38.7,0-64.3,5.9-78.3l0.3-0.6c7.3-20.2,23.1-35.9,43.3-43.3l0.6-0.3
	c14.1-5.9,39.6-5.9,78.3-5.9h50.4c38.7,0,64.3,0,78.3,5.9l0.6,0.3c20.2,7.3,35.9,23.1,43.3,43.3l0.3,0.6c5.9,14.1,5.9,39.6,5.9,78.3
	V281.2z M251.8,172c-46.3,0-84,37.7-84,84s37.7,84,84,84c46.3,0,84-37.7,84-84S298,172,251.8,172z M251.8,310.3
	c-29.9,0-54.3-24.3-54.3-54.3s24.3-54.3,54.3-54.3S306,226.1,306,256S281.7,310.3,251.8,310.3z M364,162.8c0,9.9-8,17.9-17.9,17.9
	s-17.9-8-17.9-17.9c0-9.9,8-17.9,17.9-17.9S364,152.9,364,162.8z"/>
</svg>
