<?xml version="1.0" encoding="utf-8"?>
<!-- Generator: Adobe Illustrator 25.0.1, SVG Export Plug-In . SVG Version: 6.00 Build 0)  -->
<svg version="1.1" id="Layer_1" xmlns="http://www.w3.org/2000/svg" xmlns:xlink="http://www.w3.org/1999/xlink" x="0px" y="0px"
	 viewBox="0 0 512 512" style="enable-background:new 0 0 512 512;" xml:space="preserve">
<style type="text/css">
	.st0{fill:#FFFFFF;}
</style>
<g>
	<path class="st0" d="M260,117.9c-10.5-4.8-22.9-2.9-31.5,4.9L170.9,174h-23.2c-19.2,0-30.7,0-40.2,3.9c-13.8,5.1-24.7,16-29.8,29.7
		c-3.9,9.6-3.9,21.1-3.9,40.3v16.1c0,19.2,0,30.7,3.9,40.2c5.1,13.8,16,24.7,29.7,29.8c9.6,3.9,21.1,3.9,40.3,3.9h23l57.8,51.3
		c5.3,4.8,12.2,7.4,19.4,7.5c4.2,0,8.3-0.9,12.1-2.6c10.6-4.7,17.4-15.2,17.3-26.7V144.6C277.4,133.1,270.6,122.6,260,117.9z
		 M249.6,144.7l0,222.7c0,0.9-0.7,1.6-1.6,1.6c0,0,0,0,0,0c-0.4,0-0.8-0.1-1-0.4l-65.7-58.3h-33.5c-14.7,0-25.4,0-29.9-1.9l-0.6-0.2
		c-6.3-2.3-11.3-7.2-13.6-13.6l-0.2-0.5c-1.9-4.5-1.9-15.1-1.9-29.9v-16.1c0-14.7,0-25.4,1.9-29.9l0.2-0.6
		c2.3-6.3,7.2-11.3,13.6-13.6l0.5-0.2c4.5-1.9,15.1-1.9,29.9-1.9h33.8l65.5-58.3c0.6-0.6,1.7-0.5,2.2,0.1
		C249.4,143.9,249.6,144.3,249.6,144.7z"/>
	<path class="st0" d="M438.1,251.5L438.1,251.5c-0.8-38-12.3-74.7-33.6-106.3c-0.1-0.2-0.3-0.4-0.4-0.6c-4.6-6.1-13.3-7.2-19.4-2.6
		c-5.8,4.5-7.2,12.7-3,18.8c38.5,57.8,38.5,132.6,0,190.4c-4.1,6.1-2.8,14.3,3,18.8c0.2,0.2,0.4,0.3,0.6,0.5
		c2.4,1.6,5.1,2.4,7.8,2.4c4.4,0,8.8-2.1,11.5-6c22.1-32.9,33.8-71.2,33.6-110.8L438.1,251.5z"/>
	<path class="st0" d="M338.4,186.3L338.4,186.3c-0.1,0-0.1-0.1-0.1-0.1c-2.4-2.8-5.8-4.5-9.5-4.8c-3.7-0.3-7.3,0.9-10.1,3.3
		c-5.4,4.6-6.4,12.5-2.4,18.3c10.8,15.7,16.5,34.1,16.5,53.1c0,19.1-5.7,37.4-16.5,53.1c-4.3,6.3-2.7,15,3.7,19.3
		c2.3,1.6,5,2.4,7.8,2.4c0.9,0,1.8-0.1,2.6-0.2c3.6-0.7,6.8-2.8,8.9-5.8c13.9-20.3,21.3-44.1,21.3-68.7s-7.3-48.4-21.2-68.7
		L338.4,186.3z"/>
</g>
</svg>
