<?xml version="1.0" encoding="utf-8"?>
<!-- Generator: Adobe Illustrator 25.0.1, SVG Export Plug-In . SVG Version: 6.00 Build 0)  -->
<svg version="1.1" id="Layer_1" xmlns="http://www.w3.org/2000/svg" xmlns:xlink="http://www.w3.org/1999/xlink" x="0px" y="0px"
	 viewBox="0 0 512 512" style="enable-background:new 0 0 512 512;" xml:space="preserve">
<style type="text/css">
	.st0{fill:#FFFFFF;}
</style>
<path class="st0" d="M479.2,164.1c-7.4-40.2-46.6-77.5-87.3-83.1c-86.3-11.8-185.3-11.8-271.7,0c-40.7,5.6-79.9,42.8-87.3,83.1
	c-11.3,61-11.3,122.9,0,183.9c7.4,40.2,46.6,77.5,87.3,83.1c43.2,5.9,89.5,8.9,135.8,8.9s92.7-3,135.8-8.9
	c40.7-5.6,79.9-42.8,87.3-83.1C490.5,286.9,490.5,225.1,479.2,164.1z M450,342.5c-5.1,27.6-34.2,55.2-62.2,59l0,0
	C304,413,208,413,124.2,401.6c-28-3.8-57.1-31.4-62.2-59c-10.6-57.4-10.6-115.7,0-173.1c5.1-27.6,34.2-55.2,62.2-59
	c41.9-5.7,86.8-8.6,131.8-8.6s89.9,2.9,131.8,8.6c28,3.8,57.1,31.4,62.2,59C460.6,226.9,460.6,285.1,450,342.5z M314.1,229.2
	l-61.5-35.5c-9.7-5.6-21.2-5.6-30.9,0c-9.7,5.6-15.4,15.6-15.4,26.7v71c0,11.2,5.8,21.2,15.4,26.8c4.8,2.8,10.1,4.2,15.4,4.2
	s10.6-1.4,15.4-4.2l61.5-35.5c9.7-5.6,15.4-15.6,15.4-26.8C329.5,244.8,323.7,234.8,314.1,229.2z M299.2,257l-61.5,35.5
	c-0.2,0.1-0.6,0.3-1.2,0c-0.6-0.3-0.6-0.8-0.6-1v-71c0-0.2,0-0.7,0.6-1c0.2-0.1,0.4-0.2,0.6-0.2c0.3,0,0.5,0.1,0.6,0.2l61.5,35.5
	c0.2,0.1,0.6,0.3,0.6,1C299.8,256.7,299.4,256.9,299.2,257z"/>
</svg>
