<?xml version="1.0" encoding="utf-8"?>
<!-- Generator: Adobe Illustrator 25.0.1, SVG Export Plug-In . SVG Version: 6.00 Build 0)  -->
<svg version="1.1" id="Layer_1" xmlns="http://www.w3.org/2000/svg" xmlns:xlink="http://www.w3.org/1999/xlink" x="0px" y="0px"
	 viewBox="0 0 512 512" style="enable-background:new 0 0 512 512;" xml:space="preserve">
<style type="text/css">
	.st0{fill:#FFFFFF;}
</style>
<path class="st0" d="M468.9,122c-7.4-19.9-22.9-35.5-42.8-42.8c-13.8-5.6-31.1-5.6-59.6-5.6h-221c-28.5,0-45.8,0-59.6,5.6
	C66,86.5,50.5,102.1,43.1,122c-5.6,13.8-5.6,31.1-5.6,59.6v148.8c0,28.5,0,45.8,5.6,59.6c7.4,19.9,22.9,35.5,42.8,42.8
	c13.8,5.6,31.1,5.6,59.6,5.6h221c28.5,0,45.8,0,59.6-5.6c19.9-7.4,35.5-22.9,42.8-42.8c5.6-13.8,5.6-31.1,5.6-59.6V181.6
	C474.5,153.1,474.5,135.7,468.9,122z M98.6,110.7c7.5-3.2,23.2-3.2,46.9-3.2h221c23.7,0,39.3,0,46.9,3.2l0.7,0.3
	c2,0.7,3.8,1.6,5.6,2.6L270.2,241.7c-7.5,6.5-20.8,6.5-28.3,0L92.3,113.5c1.8-1,3.7-1.9,5.6-2.6L98.6,110.7z M440.6,330.4
	c0,23.7,0,39.4-3.2,46.9l-0.3,0.7c-3.9,10.7-12.3,19.1-23,23l-0.7,0.3c-7.5,3.2-23.2,3.2-46.9,3.2h-221c-23.7,0-39.3,0-46.9-3.2
	l-0.7-0.3c-10.7-3.9-19.1-12.3-23-23l-0.3-0.7c-3.2-7.5-3.2-23.2-3.2-46.9V181.6c0-18,0-31.3,1.4-40l146.9,125.9
	c10.2,8.7,23.2,13.1,36.3,13.1c13,0,26.1-4.4,36.3-13.1l146.9-125.9c1.4,8.7,1.4,22,1.4,40V330.4z"/>
</svg>
